<svg width="49" height="49" viewBox="0 0 49 49" fill="none" xmlns="http://www.w3.org/2000/svg">
<g clip-path="url(#clip0_252_1933)">
<path d="M19.712 1.73712C22.806 1.73712 25.3146 4.24577 25.3146 7.33977C25.3146 10.4338 22.806 12.9424 19.712 12.9424C19.6819 12.9424 19.6506 12.9424 19.6205 12.9413L14.1963 6.34523C14.6668 3.7262 16.9569 1.73712 19.712 1.73712Z" fill="#EAB932"/>
<path d="M25.3146 7.33978C25.3146 10.4338 22.8059 12.9413 19.7119 12.9413C19.2135 12.9413 18.7296 12.8766 18.2692 12.754C17.3538 11.8721 16.7852 10.6345 16.7852 9.26307C16.7852 6.58384 18.9571 4.41302 21.6352 4.41302C23.0066 4.41302 24.2442 4.98165 25.1272 5.89703C25.2499 6.3575 25.3146 6.84139 25.3146 7.33978Z" fill="#FFD039"/>
<path d="M39.0206 3.42651H37.6826V6.32528H39.0206V3.42651Z" fill="#CCCCCC"/>
<path d="M39.9413 5.43317H36.7637V9.05677H39.9413V5.43317Z" fill="#E6E6E6"/>
<path d="M42.0315 8.27631V15.1333H34.6729V8.27631H36.7634H39.941H42.0315Z" fill="#CCCCCC"/>
<path d="M43.8699 14.1298V44.9773H40.1917L32.833 36.8381V36.837V14.1298H34.6727H42.0314H43.8699Z" fill="#E6E6E6"/>
<path d="M38.9433 16.0813H37.7588V42.7286H38.9433V16.0813Z" fill="#4D4D4D"/>
<path d="M41.6748 16.0809H40.4902V42.7285H41.6748V16.0809Z" fill="#4D4D4D"/>
<path d="M36.2119 16.0809H35.0273V42.7285H36.2119V16.0809Z" fill="#4D4D4D"/>
<path d="M37.9615 9.84576H36.2891V12.56H37.9615V9.84576Z" fill="#4D4D4D"/>
<path d="M40.4146 9.84576H38.7422V12.56H40.4146V9.84576Z" fill="#4D4D4D"/>
<path d="M12.152 21.5186H5.12891V44.9772H12.152V21.5186Z" fill="#BCA2A2"/>
<path d="M19.6213 12.9413V44.9773H16.7235H10.9258V21.5186V6.34521H14.1971H19.6213V12.9413Z" fill="#E6E6E6"/>
<path d="M13.4687 7.78162H12.207V43.5421H13.4687V7.78162Z" fill="#4D4D4D"/>
<path d="M15.9043 7.78162H14.6426V43.5421H15.9043V7.78162Z" fill="#4D4D4D"/>
<path d="M18.3388 7.78162H17.0771V43.5421H18.3388V7.78162Z" fill="#4D4D4D"/>
<path d="M8.96323 25.1679C8.96323 25.6295 8.58861 26.0041 8.12702 26.0041H5.12891V24.3317H8.12702C8.58861 24.3317 8.96323 24.7063 8.96323 25.1679Z" fill="#4D4D4D"/>
<path d="M8.96323 40.8887C8.96323 41.3503 8.58861 41.7249 8.12702 41.7249H5.12891V40.0525H8.12702C8.58861 40.0525 8.96323 40.4271 8.96323 40.8887Z" fill="#4D4D4D"/>
<path d="M8.96323 37.7445C8.96323 38.2061 8.58861 38.5808 8.12702 38.5808H5.12891V36.9083H8.12702C8.58861 36.9083 8.96323 37.2829 8.96323 37.7445Z" fill="#4D4D4D"/>
<path d="M8.96323 28.312C8.96323 28.7736 8.58861 29.1483 8.12702 29.1483H5.12891V27.4758H8.12702C8.58861 27.4758 8.96323 27.8505 8.96323 28.312Z" fill="#4D4D4D"/>
<path d="M8.96323 34.6004C8.96323 35.062 8.58861 35.4366 8.12702 35.4366H5.12891V33.7642H8.12702C8.58861 33.7642 8.96323 34.1388 8.96323 34.6004Z" fill="#4D4D4D"/>
<path d="M8.96323 31.4562C8.96323 31.9178 8.58861 32.2924 8.12702 32.2924H5.12891V30.62H8.12702C8.58861 30.62 8.96323 30.9946 8.96323 31.4562Z" fill="#4D4D4D"/>
<path d="M25.4192 36.837V36.8381L24.3889 44.9773H19.6214H16.7236V18.4034H19.6214H25.4192V36.837Z" fill="#CCCCCC"/>
<path d="M21.663 20.541H20.4785V42.5056H21.663V20.541Z" fill="#4D4D4D"/>
<path d="M24.3945 20.5407H23.21V42.5055H24.3945V20.5407Z" fill="#4D4D4D"/>
<path d="M18.9316 20.5407H17.7471V42.5055H18.9316V20.5407Z" fill="#4D4D4D"/>
<path d="M40.1916 36.8381V44.9773H32.8329H25.4184H22.5195V36.8381H25.4184H32.8329H40.1916Z" fill="#BCA2A2"/>
<path d="M38.3246 38.1389H24.3877V39.1488H38.3246V38.1389Z" fill="#4D4D4D"/>
<path d="M38.3246 40.1797H24.3877V41.1897H38.3246V40.1797Z" fill="#4D4D4D"/>
<path d="M38.3246 42.2206H24.3877V43.2306H38.3246V42.2206Z" fill="#4D4D4D"/>
<path d="M49 47.2629H0C0 46.7389 0.141599 46.2472 0.390234 45.8258C0.883044 44.984 1.79731 44.4198 2.84313 44.4198H46.1569C46.9418 44.4198 47.6531 44.7376 48.1671 45.2527C48.3377 45.4233 48.4871 45.6161 48.6098 45.8258C48.8573 46.2472 49 46.7389 49 47.2629Z" fill="#B3B3B3"/>
<path d="M49 47.2629H0C0 46.7389 0.141599 46.2472 0.390234 45.8257H48.6098C48.8573 46.2472 49 46.7389 49 47.2629Z" fill="#999999"/>
</g>
<defs>
<clipPath id="clip0_252_1933">
<rect width="49" height="49" fill="white"/>
</clipPath>
</defs>
</svg>
