<svg width="50" height="50" viewBox="0 0 50 50" fill="none" xmlns="http://www.w3.org/2000/svg">
<path d="M24.9998 45.2379C36.1771 45.2379 45.2379 36.1771 45.2379 24.9998C45.2379 13.8227 36.1771 4.76178 24.9998 4.76178C13.8226 4.76178 4.76172 13.8227 4.76172 24.9998C4.76172 36.1771 13.8226 45.2379 24.9998 45.2379Z" fill="url(#paint0_linear_252_1886)"/>
<path d="M24.9994 44.6425C35.8477 44.6425 44.6421 35.8481 44.6421 24.9998C44.6421 14.1513 35.8477 5.35687 24.9994 5.35687C14.1508 5.35687 5.35645 14.1513 5.35645 24.9998C5.35645 35.8481 14.1508 44.6425 24.9994 44.6425Z" fill="url(#paint1_linear_252_1886)"/>
<path opacity="0.5" d="M25.0001 6.80951C14.9524 6.80951 6.80957 14.9524 6.80957 25C6.80957 35.0475 14.9524 43.1904 25.0001 43.1904C35.0476 43.1904 43.1905 35.0475 43.1905 25C43.1905 14.9524 35.0476 6.80951 25.0001 6.80951ZM25.0001 41.6904C15.7858 41.6904 8.30957 34.2142 8.30957 25C8.30957 15.7857 15.7858 8.30951 25.0001 8.30951C34.2143 8.30951 41.6905 15.7857 41.6905 25C41.6905 34.2142 34.2143 41.6904 25.0001 41.6904Z" fill="url(#paint2_linear_252_1886)"/>
<path d="M24.9997 41.6666C34.2045 41.6666 41.6663 34.2048 41.6663 25C41.6663 15.7952 34.2045 8.33331 24.9997 8.33331C15.7949 8.33331 8.33301 15.7952 8.33301 25C8.33301 34.2048 15.7949 41.6666 24.9997 41.6666Z" fill="url(#paint3_linear_252_1886)"/>
<path d="M24.9998 41.1071C33.8954 41.1071 41.1068 33.8956 41.1068 25C41.1068 16.1042 33.8954 8.89282 24.9998 8.89282C16.104 8.89282 8.89258 16.1042 8.89258 25C8.89258 33.8956 16.104 41.1071 24.9998 41.1071Z" fill="url(#paint4_linear_252_1886)"/>
<path d="M35.8807 18.8091C35.7974 18.6663 35.6069 18.6306 35.464 18.7139L25.7499 24.94L17.976 19.8448C17.7022 19.6663 17.3332 19.7377 17.1546 20.0115C16.976 20.2853 17.0474 20.6544 17.3213 20.8329L25.1547 25.9639L25.4761 25.4639L25.6307 25.7139L35.7855 19.2139C35.9284 19.1306 35.964 18.952 35.8807 18.8091Z" fill="url(#paint5_linear_252_1886)"/>
<path d="M27.1662 25.4765C27.1662 25.024 26.9874 24.6192 26.7018 24.3098V21.6669C26.7018 20.9883 26.1541 20.4407 25.4756 20.4407C24.797 20.4407 24.2493 20.9883 24.2493 21.6669V24.3098C23.9637 24.6073 23.7852 25.024 23.7852 25.4765C23.7852 26.3335 24.4162 27.0358 25.2374 27.155V39.0121C25.2374 39.1431 25.3447 39.2502 25.4756 39.2502C25.6066 39.2502 25.7137 39.1431 25.7137 39.0121V27.155C26.5352 27.0358 27.1662 26.3335 27.1662 25.4765Z" fill="url(#paint6_linear_252_1886)"/>
<path d="M26.1902 11.2857C31.226 11.2857 35.7498 13.4404 38.9164 16.869C36.1187 12.0952 30.9402 8.89282 24.9998 8.89282C16.1069 8.89282 8.89258 16.1071 8.89258 25C8.89258 25.619 8.92831 26.2263 8.99972 26.8215C9.86879 18.0952 17.2378 11.2857 26.1902 11.2857Z" fill="url(#paint7_linear_252_1886)"/>
<path d="M25.0003 43.2737C14.9289 43.2737 6.72656 35.0712 6.72656 24.9998C6.72656 14.9284 14.9289 6.72607 25.0003 6.72607C35.0717 6.72607 43.2742 14.9284 43.2742 24.9998C43.2742 35.0712 35.0717 43.2737 25.0003 43.2737ZM25.0003 6.84512C14.9885 6.84512 6.8456 14.988 6.8456 24.9998C6.8456 35.0119 14.9885 43.1546 25.0003 43.1546C35.0124 43.1546 43.1551 35.0119 43.1551 24.9998C43.1551 14.988 35.0124 6.84512 25.0003 6.84512Z" fill="white"/>
<path d="M25.1904 12.2616H24.8096L24.6904 9.32111H25.3096L25.1904 12.2616Z" fill="#3C2200"/>
<path d="M24.762 11.3449C24.9168 11.333 25.0716 11.3211 25.2264 11.3092L25.3098 9.32111H24.6787L24.762 11.3449Z" fill="black"/>
<path d="M24.8096 37.7381H25.1904L25.3096 40.6785H24.6904L24.8096 37.7381Z" fill="#3C2200"/>
<path d="M37.7383 25.1909V24.8098L40.6787 24.6909V25.3098L37.7383 25.1909Z" fill="#3C2200"/>
<path d="M12.2618 24.8098V25.1909L9.32129 25.3098V24.6909L12.2618 24.8098Z" fill="#3C2200"/>
<path d="M31.2021 36.1306L31.5355 35.9283L33.1067 38.4165L32.5592 38.7379L31.2021 36.1306Z" fill="#3C2200"/>
<path d="M18.7973 13.8692L18.464 14.0715L16.8926 11.5835L17.4402 11.262L18.7973 13.8692Z" fill="#3C2200"/>
<path d="M35.9287 31.5356L36.131 31.2023L38.7383 32.5594L38.4168 33.1069L35.9287 31.5356Z" fill="#3C2200"/>
<path d="M14.0712 18.4639L13.8688 18.7973L11.2617 17.4401L11.5831 16.8925L14.0712 18.4639Z" fill="#3C2200"/>
<path d="M36.131 18.7973L35.9287 18.4639L38.4168 16.8925L38.7383 17.4401L36.131 18.7973Z" fill="#3C2200"/>
<path d="M13.8688 31.2023L14.0712 31.5356L11.5831 33.1069L11.2617 32.5594L13.8688 31.2023Z" fill="#3C2200"/>
<path d="M31.5355 14.0715L31.2021 13.8692L32.5592 11.262L33.1067 11.5835L31.5355 14.0715Z" fill="#3C2200"/>
<path d="M18.464 35.9283L18.7973 36.1306L17.4402 38.7379L16.8926 38.4165L18.464 35.9283Z" fill="#3C2200"/>
<path d="M32.5355 12.4875L33.1068 11.5827L32.5593 11.2732L32.0234 12.297C32.2022 12.3565 32.3689 12.428 32.5355 12.4875Z" fill="black"/>
<path d="M17.4402 11.262L16.8926 11.5715L18.0116 13.3335C18.1426 13.262 18.2854 13.1906 18.4164 13.1192L17.4402 11.262Z" fill="black"/>
<path opacity="0.25" d="M12.4643 20.2492C12.7143 19.0111 13.2619 17.8326 13.9762 16.7611C14.6905 15.7016 15.5953 14.7492 16.6191 13.9635C17.6429 13.1778 18.7976 12.5587 20.0119 12.1421C21.2261 11.7373 22.512 11.523 23.7738 11.6064C24.012 11.6183 24.1905 11.8326 24.1786 12.0706C24.1667 12.2492 24.0476 12.3921 23.8928 12.4516C22.7738 12.8683 21.7024 13.2849 20.7024 13.8087C19.6905 14.3206 18.7381 14.9159 17.8453 15.5826C16.9524 16.2611 16.1191 17.0111 15.3453 17.8444C14.5715 18.6778 13.8691 19.5826 13.1667 20.5587C13.0357 20.7373 12.7976 20.773 12.6191 20.6421C12.4881 20.5468 12.4286 20.3921 12.4643 20.2492Z" fill="white"/>
<path d="M11.583 16.8925L11.2734 17.4401L12.4758 18.0711C12.583 17.9282 12.6901 17.7973 12.7972 17.6663L11.583 16.8925Z" fill="black"/>
<path d="M24.9995 25.5958C24.8924 25.5958 24.7733 25.56 24.678 25.5006L16.6781 20.2624C16.4043 20.0839 16.3209 19.7148 16.5114 19.441C16.69 19.1672 17.059 19.0839 17.3328 19.2743L25.3328 24.5125C25.6066 24.691 25.6899 25.06 25.4995 25.334C25.3805 25.5006 25.1899 25.5958 24.9995 25.5958Z" fill="#3C2200"/>
<path d="M24.9994 25.2973C24.9042 25.2973 24.809 25.2496 24.7494 25.1544C24.666 25.0115 24.7017 24.8329 24.8446 24.7377L35.2494 18.071C35.3923 17.9877 35.5708 18.0234 35.666 18.1663C35.7612 18.3091 35.7135 18.4877 35.5708 18.5829L25.166 25.2496C25.1065 25.2852 25.059 25.2973 24.9994 25.2973Z" fill="#3C2200"/>
<path d="M24.9998 38.774C24.869 38.774 24.7617 38.6667 24.7617 38.5359V25C24.7617 24.8692 24.869 24.7619 24.9998 24.7619C25.1309 24.7619 25.238 24.8692 25.238 25V38.5359C25.238 38.6667 25.1309 38.774 24.9998 38.774Z" fill="url(#paint8_linear_252_1886)"/>
<path d="M24.9995 19.9636C24.3209 19.9636 23.7734 20.5112 23.7734 21.1898V24.9994H26.2257V21.1898C26.2257 20.5112 25.6782 19.9636 24.9995 19.9636Z" fill="url(#paint9_linear_252_1886)"/>
<path d="M25 26.6902C25.9335 26.6902 26.6904 25.9333 26.6904 24.9998C26.6904 24.0663 25.9335 23.3094 25 23.3094C24.0664 23.3094 23.3096 24.0663 23.3096 24.9998C23.3096 25.9333 24.0664 26.6902 25 26.6902Z" fill="url(#paint10_linear_252_1886)"/>
<path d="M23.4765 16.7737C23.4765 16.7142 23.5124 16.6546 23.548 16.607C23.5719 16.5832 23.5957 16.5594 23.6313 16.5475C23.6671 16.5356 23.7028 16.5237 23.7386 16.5237C23.7742 16.5237 23.8219 16.5356 23.8576 16.5475C23.8932 16.5594 23.9171 16.5832 23.9409 16.607C23.9646 16.6308 23.9765 16.6546 23.9886 16.6904C24.0005 16.7142 24.0005 16.7499 24.0124 16.7856H23.4765V16.7737ZM24.179 16.4284C24.0719 16.3094 23.929 16.2618 23.7505 16.2618C23.679 16.2618 23.5957 16.2737 23.5242 16.3094C23.4528 16.3451 23.3932 16.3808 23.3338 16.4404C23.2742 16.4999 23.2386 16.5713 23.2028 16.6427C23.1671 16.7261 23.1553 16.8213 23.1553 16.9166C23.1553 17.0118 23.1671 17.107 23.2028 17.2023C23.2386 17.2856 23.2742 17.357 23.3338 17.4166C23.3932 17.4761 23.4528 17.5237 23.5361 17.5475C23.6076 17.5832 23.6909 17.5951 23.7742 17.5951C23.8457 17.5951 23.9053 17.5832 23.9765 17.5594C24.0361 17.5356 24.0838 17.5118 24.1313 17.4761C24.179 17.4404 24.2146 17.4046 24.2505 17.3451C24.2861 17.2975 24.3099 17.2499 24.3219 17.1904L24.048 17.107C24.0242 17.1546 24.0005 17.2023 23.9528 17.2499C23.9053 17.2856 23.8457 17.2975 23.7742 17.2975C23.7386 17.2975 23.6909 17.2856 23.6553 17.2737C23.6194 17.2618 23.5838 17.238 23.5599 17.2142C23.5361 17.1904 23.5124 17.1546 23.5005 17.1189C23.4886 17.0832 23.4765 17.0475 23.4765 16.9999H24.3338C24.3338 16.9999 24.3338 16.988 24.3338 16.9642C24.3338 16.9404 24.3338 16.9166 24.3338 16.8927C24.3338 16.7023 24.2861 16.5475 24.179 16.4284Z" fill="url(#paint11_linear_252_1886)"/>
<path d="M22.9403 16.9289C22.8688 16.8575 22.7736 16.8098 22.6426 16.786L22.4521 16.7384C22.4165 16.7384 22.3926 16.7146 22.3688 16.7027C22.3451 16.6789 22.3332 16.6551 22.3332 16.6313C22.3332 16.5955 22.3569 16.5598 22.3807 16.5479C22.4165 16.5241 22.4521 16.5122 22.4999 16.5122C22.5355 16.5122 22.5592 16.5122 22.5951 16.5241C22.6188 16.536 22.6426 16.5479 22.6546 16.5598C22.6665 16.5717 22.6784 16.5955 22.6903 16.6075C22.7021 16.6313 22.7021 16.6432 22.7021 16.667H22.714L22.9999 16.6075C22.9999 16.5717 22.988 16.5241 22.964 16.4884C22.9403 16.4408 22.9165 16.4051 22.8688 16.3694C22.8213 16.3337 22.7736 16.2979 22.714 16.2741C22.6426 16.2503 22.5592 16.2384 22.4759 16.2384C22.4046 16.2384 22.3451 16.2503 22.2736 16.2741C22.214 16.2979 22.1665 16.3217 22.1188 16.3575C22.0713 16.3932 22.0355 16.4408 22.0117 16.4884C21.988 16.536 21.9759 16.5955 21.9759 16.6432C21.9759 16.7265 22.0117 16.8098 22.0592 16.8813C22.1188 16.9527 22.214 17.0003 22.3451 17.0241L22.5117 17.0598C22.5713 17.0718 22.5951 17.0837 22.6188 17.1075C22.6426 17.1313 22.6546 17.1551 22.6546 17.1789C22.6546 17.2146 22.6426 17.2384 22.6188 17.2622C22.5951 17.286 22.5474 17.2979 22.488 17.2979C22.4165 17.2979 22.3569 17.2741 22.3213 17.2384C22.2855 17.2027 22.2617 17.1551 22.2617 17.1075H22.2499L21.9521 17.167C21.9521 17.2146 21.9759 17.2503 21.988 17.286C22.0117 17.3337 22.0474 17.3813 22.0832 17.417C22.1307 17.4646 22.1903 17.4884 22.2499 17.5122C22.3213 17.536 22.4046 17.5479 22.4999 17.5479C22.5713 17.5479 22.6546 17.536 22.7259 17.5122C22.7855 17.4884 22.8451 17.4646 22.8807 17.417C22.964 17.3456 23.0117 17.2384 23.0117 17.1313C23.0355 17.0837 22.9999 17.0003 22.9403 16.9289Z" fill="url(#paint12_linear_252_1886)"/>
<path d="M26.7381 16.9289C26.6667 16.8575 26.5715 16.8098 26.4404 16.786L26.25 16.7384C26.2144 16.7384 26.1904 16.7146 26.1667 16.7027C26.1429 16.6789 26.131 16.6551 26.131 16.6313C26.131 16.5955 26.1548 16.5598 26.1785 16.5479C26.2144 16.5241 26.25 16.5122 26.2977 16.5122C26.3333 16.5122 26.3571 16.5122 26.3929 16.5241C26.4167 16.536 26.4404 16.5479 26.4523 16.5598C26.4644 16.5717 26.4763 16.5955 26.4881 16.6075C26.5 16.6313 26.5 16.6432 26.5 16.667H26.5119L26.7977 16.6075C26.7977 16.5717 26.7856 16.5241 26.7619 16.4884C26.7381 16.4408 26.7144 16.4051 26.6667 16.3694C26.619 16.3337 26.5715 16.2979 26.5119 16.2741C26.4404 16.2503 26.3571 16.2384 26.2737 16.2384C26.2023 16.2384 26.1429 16.2503 26.0715 16.2741C26.0119 16.2979 25.9644 16.3217 25.9167 16.3575C25.869 16.3932 25.8333 16.4408 25.8096 16.4884C25.7858 16.536 25.7738 16.5955 25.7738 16.6432C25.7738 16.7265 25.8096 16.8098 25.8571 16.8813C25.9167 16.9527 26.0119 17.0003 26.1429 17.0241L26.3096 17.0598C26.369 17.0718 26.3929 17.0837 26.4167 17.1075C26.4404 17.1313 26.4523 17.1551 26.4523 17.1789C26.4523 17.2146 26.4404 17.2384 26.4167 17.2622C26.3929 17.286 26.3452 17.2979 26.2856 17.2979C26.2144 17.2979 26.1548 17.2741 26.119 17.2384C26.0833 17.2027 26.0596 17.1551 26.0596 17.1075H26.0477L25.75 17.167C25.75 17.2146 25.7738 17.2503 25.7858 17.286C25.8096 17.3337 25.8452 17.3813 25.881 17.417C25.9285 17.4646 25.9881 17.4884 26.0477 17.5122C26.119 17.536 26.2023 17.5479 26.2977 17.5479C26.369 17.5479 26.4523 17.536 26.5237 17.5122C26.5833 17.4884 26.6429 17.4646 26.6785 17.417C26.7619 17.3456 26.8096 17.2384 26.8096 17.1313C26.8333 17.0837 26.7977 17.0003 26.7381 16.9289Z" fill="url(#paint13_linear_252_1886)"/>
<path d="M27.7142 17.0237C27.7142 17.0713 27.7023 17.1189 27.6904 17.1666C27.6785 17.2023 27.6546 17.2261 27.6308 17.2499C27.6071 17.2737 27.5833 17.2856 27.5475 17.2975C27.5119 17.3094 27.4879 17.3094 27.4523 17.3094C27.4046 17.3094 27.3571 17.2975 27.3333 17.2618C27.3094 17.238 27.2975 17.2023 27.2975 17.1666C27.2975 17.1189 27.3094 17.0832 27.3452 17.0594C27.369 17.0356 27.4167 17.0118 27.4523 17.0118L27.7142 16.9642V17.0356V17.0237ZM28.0237 17.5713V16.738C28.0237 16.6784 28.0119 16.6189 28 16.5594C27.9879 16.4999 27.9523 16.4523 27.9167 16.4047C27.869 16.357 27.8212 16.3213 27.7619 16.2975C27.6904 16.2737 27.6071 16.2618 27.5238 16.2618C27.4523 16.2618 27.3808 16.2737 27.3094 16.2975C27.25 16.3213 27.2023 16.357 27.1546 16.3927C27.119 16.4284 27.0833 16.4761 27.0594 16.5237C27.0475 16.5594 27.0356 16.5832 27.0238 16.6189L27.3094 16.6784C27.3212 16.6427 27.3333 16.6189 27.3571 16.5951C27.3927 16.5594 27.4523 16.5356 27.5238 16.5356C27.5952 16.5356 27.6427 16.5475 27.6785 16.5832C27.7142 16.6189 27.726 16.6547 27.726 16.7023C27.726 16.7261 27.7142 16.738 27.7023 16.7618C27.6785 16.7856 27.6546 16.7975 27.6308 16.7975L27.3452 16.8451C27.2975 16.857 27.25 16.8689 27.2023 16.8808C27.1667 16.9046 27.119 16.9284 27.0952 16.9523C27.0594 16.988 27.0356 17.0237 27.0238 17.0713C27 17.1189 27 17.1666 27 17.2142C27 17.2618 27.0119 17.3094 27.0238 17.357C27.0475 17.4046 27.0713 17.4404 27.1071 17.4761C27.1427 17.5118 27.1904 17.5356 27.2379 17.5594C27.2856 17.5832 27.3452 17.5951 27.4046 17.5951C27.6071 17.5951 27.726 17.4761 27.75 17.4166V17.5832L28.0237 17.5713Z" fill="url(#paint14_linear_252_1886)"/>
<path d="M25.6068 16.5714C25.5949 16.5119 25.5593 16.4524 25.5234 16.4048C25.4878 16.3571 25.4401 16.3214 25.3807 16.2976C25.3211 16.2738 25.2497 16.25 25.1782 16.2619C25.1068 16.2619 25.0355 16.2738 24.9759 16.3095C24.9401 16.3333 24.8926 16.3571 24.8689 16.3809V16.2857H24.5234V17.5714H24.8689V16.6786C24.8807 16.6667 24.9522 16.5714 25.0711 16.5714C25.1545 16.5714 25.2141 16.5952 25.2497 16.6429C25.2855 16.6905 25.3093 16.7619 25.3093 16.8214V17.5595H25.6545V16.75C25.6426 16.7024 25.6307 16.6309 25.6068 16.5714Z" fill="url(#paint15_linear_252_1886)"/>
<defs>
<linearGradient id="paint0_linear_252_1886" x1="29.6579" y1="36.4" x2="16.0865" y2="3.18568" gradientUnits="userSpaceOnUse">
<stop stop-color="#8EA5A8"/>
<stop offset="1" stop-color="#CFDCDE"/>
</linearGradient>
<linearGradient id="paint1_linear_252_1886" x1="13.0328" y1="-7.77167" x2="52.1996" y2="99.4902" gradientUnits="userSpaceOnUse">
<stop stop-color="white"/>
<stop offset="1" stop-color="#A9BCBE"/>
</linearGradient>
<linearGradient id="paint2_linear_252_1886" x1="7.67261" y1="-6.79876" x2="36.5615" y2="46.2171" gradientUnits="userSpaceOnUse">
<stop stop-color="#8EA5A8"/>
<stop offset="1" stop-color="#DEE7E8"/>
</linearGradient>
<linearGradient id="paint3_linear_252_1886" x1="38.0805" y1="86.9785" x2="23.0791" y2="15.9" gradientUnits="userSpaceOnUse">
<stop stop-color="white"/>
<stop offset="1" stop-color="#A9BCBE"/>
</linearGradient>
<linearGradient id="paint4_linear_252_1886" x1="23.1618" y1="21.6806" x2="39.1141" y2="50.4902" gradientUnits="userSpaceOnUse">
<stop stop-color="white"/>
<stop offset="1" stop-color="#CFDCDE"/>
</linearGradient>
<linearGradient id="paint5_linear_252_1886" x1="33.448" y1="31.8708" x2="21.9188" y2="11.7147" gradientUnits="userSpaceOnUse">
<stop stop-color="#A9BCBE" stop-opacity="0"/>
<stop offset="1" stop-color="#8EA5A8"/>
</linearGradient>
<linearGradient id="paint6_linear_252_1886" x1="35.9814" y1="33.8535" x2="2.58855" y2="20.9963" gradientUnits="userSpaceOnUse">
<stop stop-color="#A9BCBE" stop-opacity="0"/>
<stop offset="1" stop-color="#8EA5A8"/>
</linearGradient>
<linearGradient id="paint7_linear_252_1886" x1="24.5521" y1="23.1731" x2="13.5996" y2="-0.993562" gradientUnits="userSpaceOnUse">
<stop stop-color="#A9BCBE" stop-opacity="0"/>
<stop offset="1" stop-color="#8EA5A8"/>
</linearGradient>
<linearGradient id="paint8_linear_252_1886" x1="28.1884" y1="36.7913" x2="21.8111" y2="26.7415" gradientUnits="userSpaceOnUse">
<stop stop-color="#FF9214"/>
<stop offset="1" stop-color="#FF9D00"/>
</linearGradient>
<linearGradient id="paint9_linear_252_1886" x1="24.9997" y1="21.9048" x2="24.9997" y2="25.8194" gradientUnits="userSpaceOnUse">
<stop stop-color="#FF9D00"/>
<stop offset="1" stop-color="#A3541E"/>
</linearGradient>
<linearGradient id="paint10_linear_252_1886" x1="26.7433" y1="27.7471" x2="23.7842" y2="23.0836" gradientUnits="userSpaceOnUse">
<stop stop-color="#FF9214"/>
<stop offset="1" stop-color="#FF9D00"/>
</linearGradient>
<linearGradient id="paint11_linear_252_1886" x1="20.6404" y1="15.4253" x2="30.3428" y2="20.0682" gradientUnits="userSpaceOnUse">
<stop stop-color="#BBCACC"/>
<stop offset="0.4708" stop-color="#939FA1" stop-opacity="0.75"/>
<stop offset="1" stop-color="#CFDCDE"/>
</linearGradient>
<linearGradient id="paint12_linear_252_1886" x1="20.4074" y1="15.9115" x2="30.1097" y2="20.5543" gradientUnits="userSpaceOnUse">
<stop stop-color="#BBCACC"/>
<stop offset="0.4708" stop-color="#939FA1" stop-opacity="0.75"/>
<stop offset="1" stop-color="#CFDCDE"/>
</linearGradient>
<linearGradient id="paint13_linear_252_1886" x1="21.1152" y1="14.4327" x2="30.8177" y2="19.0754" gradientUnits="userSpaceOnUse">
<stop stop-color="#BBCACC"/>
<stop offset="0.4708" stop-color="#939FA1" stop-opacity="0.75"/>
<stop offset="1" stop-color="#CFDCDE"/>
</linearGradient>
<linearGradient id="paint14_linear_252_1886" x1="21.3321" y1="13.9789" x2="31.0344" y2="18.6217" gradientUnits="userSpaceOnUse">
<stop stop-color="#BBCACC"/>
<stop offset="0.4708" stop-color="#939FA1" stop-opacity="0.75"/>
<stop offset="1" stop-color="#CFDCDE"/>
</linearGradient>
<linearGradient id="paint15_linear_252_1886" x1="20.8543" y1="14.977" x2="30.5566" y2="19.6199" gradientUnits="userSpaceOnUse">
<stop stop-color="#BBCACC"/>
<stop offset="0.4708" stop-color="#939FA1" stop-opacity="0.75"/>
<stop offset="1" stop-color="#CFDCDE"/>
</linearGradient>
</defs>
</svg>
