<svg width="50" height="50" viewBox="0 0 50 50" fill="none" xmlns="http://www.w3.org/2000/svg">
<g clip-path="url(#clip0_252_1974)">
<path d="M25 10.8696C32.5005 10.8696 38.587 16.9561 38.587 24.4565C38.587 31.957 32.5005 38.0435 25 38.0435C17.4996 38.0435 11.4131 31.957 11.4131 24.4565C11.4131 16.9561 17.4996 10.8696 25 10.8696Z" fill="#FFD248"/>
<path d="M48.913 20.1087V29.8913H44.4888C44.0005 31.8264 43.2394 33.6522 42.2395 35.3155L45.3699 38.4458L38.4564 45.3698L35.3155 42.2395C33.6521 43.2394 31.8264 44.0005 29.8914 44.4887V48.9131H20.1088V44.4888C18.1747 44.0006 16.3479 43.2395 14.6846 42.2396L11.5543 45.3699L4.63028 38.4459L7.7617 35.3156C6.76159 33.6522 5.99941 31.8264 5.51115 29.8913H1.08691V20.1087H5.51115C5.99941 18.1747 6.76159 16.3478 7.76148 14.6846L4.63007 11.5437L11.5541 4.63024L14.6844 7.76165C16.3478 6.76165 18.1746 5.99948 20.1087 5.51121V1.08698H29.8913V5.51121C31.8264 5.99948 33.6521 6.76165 35.3154 7.76154L38.4457 4.63013L45.3697 11.5436L42.2394 14.6845C43.2393 16.3478 44.0004 18.1746 44.4887 20.1086H48.913V20.1087ZM38.5869 24.4565C38.5869 16.9561 32.5004 10.8696 25 10.8696C17.4995 10.8696 11.413 16.9561 11.413 24.4565C11.413 31.957 17.4995 38.0435 25 38.0435C32.5004 38.0435 38.5869 31.957 38.5869 24.4565Z" fill="#B7DCF5"/>
<path d="M25.0004 14.674C30.4013 14.674 34.783 19.0568 34.783 24.4566C34.783 29.8574 30.4011 34.2392 25.0004 34.2392C19.6006 34.2392 15.2178 29.8573 15.2178 24.4566C15.2178 19.0568 19.6006 14.674 25.0004 14.674Z" fill="#FDC447"/>
<path d="M48.913 19.0217H45.3181C44.8901 17.5701 44.313 16.1773 43.5952 14.864L46.1397 12.3109C46.5631 11.886 46.5624 11.1984 46.1377 10.7745L39.2137 3.86098C38.789 3.43696 38.1013 3.43717 37.677 3.86174L35.1345 6.40489C33.8201 5.68652 32.4278 5.10924 30.9782 4.68163V1.08696C30.9782 0.48663 30.4914 0 29.8912 0H20.1086C19.5083 0 19.0216 0.48663 19.0216 1.08696V4.68185C17.5715 5.10957 16.1792 5.68685 14.8653 6.40511L12.3228 3.86185C11.8986 3.4375 11.2107 3.43717 10.7861 3.86109L3.86217 10.7745C3.43761 11.1983 3.43685 11.8862 3.86033 12.3111L6.40565 14.8641C5.68717 16.1785 5.10967 17.5711 4.68185 19.0217H1.08696C0.48663 19.0217 0 19.5084 0 20.1087V29.8913C0 30.4915 0.48663 30.9783 1.08696 30.9783H4.68174C5.10935 32.4279 5.68652 33.8203 6.405 35.1346L3.86185 37.6771C3.65793 37.8809 3.54326 38.1574 3.54326 38.4457C3.54326 38.7339 3.65783 39.0104 3.86163 39.2143L10.7857 46.1384C11.2102 46.5627 11.8983 46.5627 12.3229 46.1384L14.8654 43.5958C16.1784 44.3133 17.5708 44.8902 19.0218 45.318V48.913C19.0218 49.5133 19.5085 50 20.1088 50H29.8914C30.4916 50 30.9784 49.5133 30.9784 48.913V45.3183C32.4297 44.8904 33.8224 44.3134 35.1361 43.5952L37.6892 46.1397C38.114 46.563 38.8018 46.5623 39.2257 46.1377L46.139 39.2137C46.5629 38.7891 46.5628 38.1014 46.1385 37.6771L43.596 35.1346C44.3136 33.8213 44.8905 32.4289 45.3183 30.9782H48.913C49.5133 30.9782 50 30.4914 50 29.8912V20.1086C50 19.5084 49.5133 19.0217 48.913 19.0217ZM47.8261 28.8043H44.4888C43.991 28.8043 43.5567 29.1426 43.4349 29.6254C42.9755 31.4459 42.2599 33.172 41.308 34.7554C41.0509 35.1832 41.118 35.7312 41.471 36.0841L43.8333 38.4464L38.4546 43.8334L36.0828 41.4697C35.7298 41.1179 35.1827 41.0512 34.7555 41.308C33.1721 42.26 31.446 42.9757 29.6255 43.4349C29.1428 43.5567 28.8045 43.991 28.8045 44.4888V47.8261H21.1958V44.4888C21.1958 43.991 20.8576 43.5568 20.3749 43.435C18.5535 42.9752 16.8275 42.2596 15.2447 41.308C14.8168 41.051 14.2689 41.118 13.916 41.471L11.5542 43.8327L6.1675 38.446L8.53 36.0843C8.88293 35.7314 8.95022 35.1835 8.69304 34.7555C7.73989 33.17 7.02402 31.4439 6.56511 29.6255C6.44326 29.1428 6.00902 28.8045 5.5112 28.8045H2.17391V21.1958H5.5112C6.00902 21.1958 6.44315 20.8576 6.565 20.3749C7.02446 18.5555 7.74033 16.8296 8.69304 15.2447C8.94989 14.8174 8.88315 14.2702 8.5313 13.9172L6.16674 11.5455L11.5535 6.16707L13.9158 8.53022C14.2689 8.88337 14.8168 8.95033 15.2446 8.69326C16.8295 7.74054 18.5554 7.02457 20.3748 6.56522C20.8575 6.44337 21.1957 6.00924 21.1957 5.51141V2.17391H28.8043V5.5112C28.8043 6.00902 29.1426 6.44326 29.6254 6.56511C31.4438 7.02402 33.1699 7.74 34.7554 8.69304C35.183 8.95 35.7313 8.88283 36.0842 8.53L38.4465 6.16685L43.8334 11.5454L41.4697 13.9172C41.1178 14.2701 41.0511 14.8173 41.308 15.2445C42.2596 16.8274 42.9752 18.5533 43.435 20.3747C43.5568 20.8574 43.991 21.1955 44.4888 21.1955H47.8261V28.8043Z" fill="#323030"/>
<path d="M25.0001 9.78259C16.9089 9.78259 10.3262 16.3653 10.3262 24.4565C10.3262 32.5477 16.9089 39.1304 25.0001 39.1304C33.0913 39.1304 39.674 32.5478 39.674 24.4565C39.674 16.3652 33.0914 9.78259 25.0001 9.78259ZM25.0001 36.9565C18.1076 36.9565 12.5001 31.349 12.5001 24.4565C12.5001 17.564 18.1076 11.9565 25.0001 11.9565C31.8926 11.9565 37.5001 17.564 37.5001 24.4565C37.5001 31.349 31.8926 36.9565 25.0001 36.9565Z" fill="#231F20"/>
<path d="M26.6301 19.0217H26.0866V17.3913H23.9127V19.0217H23.3692C22.1705 19.0217 21.1953 19.9969 21.1953 21.1956V23.3696C21.1953 24.5683 22.1705 25.5435 23.3692 25.5435H24.9997H26.6301V27.7174H23.3692V26.6304H21.1953V27.7174C21.1953 28.9161 22.1705 29.8913 23.3692 29.8913H23.9127V31.5217H26.0866V29.8913H26.6301C27.8288 29.8913 28.804 28.9161 28.804 27.7174V25.5435C28.804 24.3448 27.8288 23.3696 26.6301 23.3696H24.9997H23.3692V21.1956H26.6301V22.2826H28.804V21.1956C28.804 19.9969 27.8288 19.0217 26.6301 19.0217Z" fill="#231F20"/>
<path d="M34.2393 23.3696H32.0654V25.5435H34.2393V23.3696Z" fill="#231F20"/>
<path d="M17.9347 23.3696H15.7607V25.5435H17.9347V23.3696Z" fill="#231F20"/>
</g>
<defs>
<clipPath id="clip0_252_1974">
<rect width="50" height="50" fill="white"/>
</clipPath>
</defs>
</svg>
