<!DOCTYPE svg PUBLIC "-//W3C//DTD SVG 1.1//EN" "http://www.w3.org/Graphics/SVG/1.1/DTD/svg11.dtd">
<!-- Uploaded to: SVG Repo, www.svgrepo.com, Transformed by: SVG Repo Mixer Tools -->
<svg version="1.1" id="Layer_1" xmlns="http://www.w3.org/2000/svg" xmlns:xlink="http://www.w3.org/1999/xlink" viewBox="0 0 508 508" xml:space="preserve" width="800px" height="800px" fill="#000000">
<g id="SVGRepo_bgCarrier" stroke-width="0"/>
<g id="SVGRepo_tracerCarrier" stroke-linecap="round" stroke-linejoin="round"/>
<g id="SVGRepo_iconCarrier"> <circle style="fill:#d6d6d6;" cx="254" cy="254" r="254"/> <path style="fill:#FFFFFF;" d="M379.2,432.4H132.8c-6.8,0-12.4-5.6-12.4-12.4V130c0-6.8,5.6-12.4,12.4-12.4h246.4 c6.8,0,12.4,5.6,12.4,12.4v290.4C391.2,427.2,386,432.4,379.2,432.4z"/> <g> <rect x="145.6" y="310" style="fill:#E6E9EE;" width="220.8" height="11.2"/> <rect x="145.6" y="278.4" style="fill:#E6E9EE;" width="220.8" height="11.2"/> <rect x="145.6" y="247.2" style="fill:#E6E9EE;" width="220.8" height="11.2"/> <rect x="145.6" y="341.2" style="fill:#E6E9EE;" width="220.8" height="11.2"/> <rect x="145.6" y="372.8" style="fill:#E6E9EE;" width="220.8" height="11.2"/> <rect x="145.6" y="404" style="fill:#E6E9EE;" width="220.8" height="11.2"/> </g> <circle style="fill:#4CDBC4;" cx="361.2" cy="341.2" r="64"/> <polygon style="fill:#FF7058;" points="171.6,235.6 165.6,229.6 206,189.2 222.4,206 276.4,152 304.8,180.8 340.4,145.2 346,151.2 304.8,192.4 276.4,163.6 222.4,217.6 206,201.2 "/> <polygon style="fill:#FFFFFF;" points="393.6,308.4 342,360 328.8,346.8 319.2,356.4 342,379.2 403.2,318 "/> <g> <rect x="200.4" y="99.2" style="fill:#FFD05B;" width="114" height="34"/> <circle style="fill:#FFD05B;" cx="257.6" cy="99.2" r="24"/> </g> <circle style="fill:#5D5D5D;" cx="257.6" cy="99.2" r="11.6"/> </g>
</svg>