<?xml version="1.0" encoding="UTF-8"?>
<svg xmlns="http://www.w3.org/2000/svg" version="1.2" viewBox="0 0 1132 567"  height="567">
  <title>GAMR BM FAW_RGB_Reverse Mono-ai</title>
  <style>
		.s0 { fill: #ffffff } 
	</style>
  <g id="Layer 1">
    <g id="NewGroup">
		</g>
    <g id="&lt;Group&gt;">
      <g id="&lt;Group&gt;">
        <g id="&lt;Group&gt;">
          <path id="&lt;Path&gt;" class="s0" d="m889 308.9c-3.4-1-7.9-1.7-13.3-0.9q-2.8 0.5-5.9 1.6-0.3 0.1-0.6 0.2-1.6 0.6-3.2 1.4-1.3 0.7-2.7 1.5c-2 1.2-4 2.6-6 4.1-2.2-13.4-1.1-25.9-0.6-32q0-0.1 0.1-0.1c4.7 3 3.4 11.4 2.4 13.8 0 0 0.1 0.1 0.1 0 5.9-7 3-14.7 1.8-16.7 0 0 0 0 0.1 0q1.2 1 2.1 2.2c1.8 2.3 2.5 4.8 2.7 7.1 0.1 1.2 0.1 2.3 0 3.2q0 0.4-0.1 0.7 0.1 0.1 0.1 0 0 0 0 0c1.6-3.1 2.4-7.9 0-12.5q-1-1.9-2.7-3.7-0.5-0.5-1.1-1c0 0 0-0.1 0.1-0.1q0.5 0.2 1 0.3 1.5 0.6 2.7 1.5c1.8 1.3 3 3.1 3.7 5 0.7 1.6 0.9 3.2 0.9 4.6 0 0.1 0.1 0.1 0.1 0 1.1-4.1 0.5-7.2-1-9.4-1-1.6-2.3-2.8-3.7-3.6-0.9-0.6-1.9-1-2.7-1.2q-0.7-0.3-1.3-0.3c0 0 0-0.1 0-0.1q0.7-0.1 1.3-0.1 1.5 0 2.7 0.2c1.6 0.3 2.8 0.9 3.7 1.5 1.6 1 2.3 2.2 2.6 2.7 0 0.1 0.1 0 0 0-0.2-2.2-1.2-3.9-2.6-5.1-1-0.9-2.3-1.6-3.7-2q-1.3-0.3-2.7-0.3c-1.2-0.1-2.4 0.1-3.3 0.6-0.1 0-0.1-0.1-0.1-0.1 0.9-1.3 2.1-2 3.4-2.4 0.9-0.3 1.8-0.4 2.7-0.4 0.8 0.1 1.6 0.3 2.2 0.6 0 0 0.1-0.1 0.1-0.1q-1.1-1.2-2.3-1.8-1.3-0.8-2.7-0.9c-2.4-0.3-4.8 0.7-6.5 3.2q0 0 0 0-0.5-0.8-0.9-1.8c-0.7-1.5-1.2-3.2-1.5-4.9-0.3 1.7-0.8 3.4-1.5 4.9q-0.4 1-0.9 1.8 0 0 0 0c-1.7-2.5-4.1-3.5-6.5-3.2q-1.4 0.2-2.7 0.9-1.2 0.6-2.2 1.8c-0.1 0 0 0.1 0 0.1 0.6-0.3 1.4-0.5 2.2-0.5 0.9-0.1 1.8 0 2.7 0.3 1.3 0.4 2.5 1.1 3.4 2.4 0 0 0 0.1 0 0.1-1-0.5-2.2-0.7-3.4-0.6q-1.3 0-2.7 0.3c-1.4 0.4-2.7 1.1-3.7 2-1.4 1.2-2.4 2.9-2.6 5.1 0 0 0 0.1 0.1 0 0.2-0.5 1-1.6 2.5-2.7 0.9-0.6 2.1-1.2 3.7-1.5q1.2-0.2 2.7-0.2 0.6 0 1.3 0.1c0 0 0 0.1 0 0.1q-0.6 0.1-1.3 0.3c-0.8 0.2-1.7 0.6-2.7 1.2-1.4 0.8-2.7 2-3.7 3.6-1.4 2.3-2.1 5.4-1 9.4 0 0.1 0.1 0.1 0.1 0 0-1.4 0.3-3 0.9-4.6 0.7-1.9 1.9-3.7 3.7-5q1.2-0.9 2.7-1.5 0.5-0.1 1-0.3c0.1 0 0.1 0.1 0.1 0.1q-0.6 0.5-1.1 1-1.7 1.8-2.7 3.7c-2.4 4.6-1.6 9.4 0 12.5q0 0 0 0 0.1 0.1 0.1 0-0.1-0.3-0.1-0.7c0-0.9-0.1-2 0-3.2 0.2-2.2 0.9-4.8 2.7-7.1q0.9-1.2 2.1-2.2c0.1 0 0.1 0 0.1 0-1.2 2-4.1 9.7 1.8 16.7 0.1 0.1 0.1 0 0.1 0-1-2.4-2.3-10.8 2.4-13.8q0.1 0 0.1 0.1c0.5 6.1 1.6 18.6-0.6 32-2-1.5-4-2.9-6-4.1q-1.3-0.8-2.7-1.5-1.5-0.8-3.1-1.4-0.3-0.1-0.6-0.2-3.1-1.1-6-1.6c-5.3-0.8-9.9-0.1-13.3 0.9-0.2 0.1-0.4 0.3-0.4 0.6 0 0.4 0.3 0.7 0.7 0.7 4.7-0.7 9-0.2 13 0.9q3.1 0.9 6 2.3 1.9 0.9 3.7 2 1.4 0.8 2.7 1.7c2.1 1.4 4.1 3 6 4.6-2.1 1.8-4.1 3.7-6 5.4q-1.4 1.3-2.7 2.4c-1.4 1.2-2.6 2.3-3.7 3q-0.7 0.5-1.3 0.8c-0.7-0.9-1.9-1.5-3.2-1.2-0.6 0.1-1.1 0.4-1.5 0.8-0.4 0.4-0.7 0.9-0.8 1.5-0.3 1 0.2 2.3 0.6 2.7q0.1 0.1 0.2 0.2c1.7 1.5 3.7 1.4 6 0.2 1.2-0.7 2.4-1.6 3.7-2.6q1.3-1.1 2.7-2.4c2.3-2 4.8-4.4 7.5-6.9q0.7-0.7 1.4-1.4 0.8 0.7 1.5 1.4c2.7 2.4 5.2 4.9 7.4 6.9q1.4 1.3 2.7 2.4c1.3 1 2.6 1.9 3.8 2.6 2.2 1.2 4.2 1.3 5.9-0.2q0.2-0.1 0.3-0.2c0.4-0.4 0.8-1.7 0.6-2.7-0.1-0.6-0.5-1.1-0.9-1.5-0.4-0.4-0.9-0.7-1.4-0.8-1.4-0.3-2.6 0.2-3.3 1.2q-0.5-0.3-1.2-0.8c-1.1-0.7-2.4-1.8-3.8-3q-1.2-1.1-2.7-2.4c-1.8-1.7-3.8-3.6-6-5.4 1.9-1.6 3.9-3.2 6-4.6q1.3-0.9 2.7-1.7 1.8-1.1 3.8-2 2.8-1.4 5.9-2.3c4.1-1.2 8.4-1.6 13-1 0.4 0.1 0.7-0.2 0.7-0.6 0-0.3-0.1-0.5-0.4-0.6z"></path>
          <g id="&lt;Group&gt;">
            <path id="&lt;Compound Path&gt;" fill-rule="evenodd" class="s0" d="m930.2 220.3c20.1 17.1 34.1 38.7 39.4 60.8 0.9 28.6-9.1 58.9-26.5 81.2-13.9 11.5-28 20.4-43.6 27.5-16.3 7.4-34.2 12.8-54.7 16.5l-0.3 0.1-0.4-0.1c-29.5-8.6-56.7-26.9-78.6-53-18.1-21.6-28.7-47-30.5-73.4-1.9-26.2 4.7-52.2 18.4-73.1l0.4-0.4 7.6-6.4c14.3-12 27.8-23.3 42.2-33.6l0.8-0.6 5.3 2.6c14.1 6.7 30.1 14.3 48.9 18.9 30.9 7.4 54.3 18.2 71.6 33zm-2 2.4c-17-14.5-40-25.1-70.3-32.4-19.2-4.6-35.3-12.3-49.5-19.1l-1.3-0.6 0.4 0.3c14.1 11.5 31.4 24.1 53 31 20.7 6.6 44.3 15.3 62.9 29.4 18 13.8 32.1 30.7 39.7 47.7l0.1 0.5c1.5 25.2-6.5 54.1-20.8 75.2l-0.3 0.3c-13.9 10.9-28.1 19.7-43.4 27-15.7 7.4-33.3 13.4-54 18.5l-0.4 0.2-0.5-0.2c-26.7-11-51.7-30.3-72.1-56-15.5-19.6-25.2-41.8-28-64.4-2.8-22.8 0.7-45.2 10-64.9l0.4-0.5c9.7-7.8 19-15.9 28-23.7 7.6-6.7 15.6-13.6 23.5-20.1l0.8-0.7-1.7-0.8c-14.1 10.2-27.3 21.3-41.3 33l-7.5 6.3c-13.3 20.4-19.6 45.6-17.8 71 1.8 25.7 12.1 50.5 29.8 71.6 21.4 25.5 47.9 43.5 76.7 51.9 20.1-3.6 37.6-9 53.6-16.3 15.3-7 29.3-15.7 42.7-26.7 16.8-21.6 26.4-51.1 25.6-78.7-5.1-21.1-18.8-42.1-38.3-58.8zm-120.2-47.7q-0.8-0.5-1.5-1.1c-7.5 6.2-14.8 12.6-22.5 19.3-8.9 7.8-18.1 15.8-27.7 23.6-9 19.1-12.4 40.8-9.7 62.9 2.8 22.1 12.2 43.8 27.4 62.9 20 25.2 44.4 44.2 70.5 55 20.3-5.1 37.6-11 52.9-18.3 15.1-7.1 29.1-15.8 42.7-26.4 13.9-20.6 21.6-48.5 20.2-73-7.4-16.4-21.1-32.8-38.7-46.2-18.3-13.9-41.6-22.5-62-29-18.9-6-34.5-16.3-47.6-26.5 16.1 18.5 32.6 31.1 50.4 38.4l4.4 1.8c17 7 34.6 14.2 49.7 24 15.8 10.4 30 22.6 39.9 34.3l0.3 0.4v0.4c1.8 16.9-1.1 45.3-15.1 69.5l-0.3 0.4c-14.3 10.7-28.1 19.2-43.5 26.8-15 7.3-31.9 13.9-53.2 20.6l-0.5 0.2-0.6-0.3c-24.1-13.4-46.8-33.8-65.7-59.1-12.9-17.3-21.6-36.4-25.3-55.4-3.7-19-3.2-38.5 1.6-56.5l0.1-0.4 0.3-0.3c14.9-11.7 28.3-24.3 41.2-36.5q6-5.6 11.9-11.1zm-52.8 104.7c3.6 18.5 12.2 37.3 24.9 54.2 18.5 24.8 40.7 44.8 64.3 58 20.9-6.6 37.5-13 52.2-20.3 15.2-7.4 28.8-15.8 42.8-26.2 13.5-23.4 16.3-50.7 14.7-67.3-9.7-11.4-23.6-23.3-39.1-33.5-14.9-9.7-32.3-16.8-49.2-23.7l-4.4-1.8c-15.9-6.6-30.8-17.2-45.2-32.2 13.7 19.7 29.8 34.7 48.2 44.3 7.7 4.1 15.9 8 23.8 11.8 7.1 3.3 14.5 6.8 21.4 10.4 8.3 4.3 16.4 8.6 24 12.6 5.6 3 11 5.9 16 8.5l0.6 0.3 0.1 0.6c2.8 16.1 1 42.1-9.4 63.9l-0.4 0.5c-14.4 10.3-28.2 18.7-43.5 26.5-14.3 7.2-30.4 14.2-52.5 22.6l-0.6 0.3-0.6-0.4c-22-16.1-41.9-37-59.3-62.1-10.4-15.1-18-30.7-22.7-46.3-4.4-14.7-6.6-29.9-6.8-45.1-2.4 14.4-2.2 29.5 0.7 44.4zm186.6-4.9c-27.4-1.9-53.9-11.2-76.8-27-22.2-15.3-40.4-36.3-52.7-60.8-16.3 18.5-33.2 37.5-55 53.9 9.2 29.6 20.7 55.5 34.1 77 15.2 24.5 36.8 45.2 54.3 61.9 26.6-11 73.9-34.6 91.7-49.5 7.6-21.2 7.2-44.8 4.4-55.5zm-132.1-95.1c-0.4-0.4-0.8-0.9-1.2-1.4q-5.5 5.1-10.8 10.1c-12.9 12.2-26.2 24.7-41.1 36.4q-0.8 3.1-1.4 6.2c18.9-14.4 34.8-30.9 50.2-46.8zm130.3 92.6q-3.7-2-7.7-4.1c-7.5-4-15.6-8.3-23.9-12.6-6.9-3.5-14.2-7-21.3-10.4-7.9-3.7-16.2-7.6-24-11.7-16.1-8.5-30.6-21.1-43.1-37.2 11.7 19.7 27.5 36.8 46.2 49.7 22 15.2 47.5 24.2 73.8 26.3zm-182.9-34.1c21.4-16.3 38.2-35.3 54.4-53.7-0.3-0.6-0.8-1.2-1.2-1.8l-3.1 3.2c-15.4 16-31.3 32.4-50.2 47q0 2.7 0.1 5.3zm0.7 11.4c1.1 10.2 3 20.2 5.9 30 4.6 15.4 12.2 30.8 22.4 45.6 17 24.7 36.6 45.2 58.1 61.1 21.6-8.3 37.6-15.2 51.6-22.3 15.1-7.7 28.7-16 42.9-26.1 9.9-21 11.7-45.8 9.2-61.5-1.3-0.6-2.6-1.3-3.9-2 3.2 12.7 2.7 36.5-4.7 56.9l-0.1 0.3-0.2 0.2c-17.9 15.1-66.4 39.3-93.1 50.3l-0.7 0.3-0.5-0.5c-17.7-16.9-39.7-37.9-55.2-62.8-12.3-19.7-22.9-43.1-31.7-69.5z"></path>
            <path id="&lt;Compound Path&gt;" fill-rule="evenodd" class="s0" d="m937.1 209.2c19.7 18.5 33.2 42.1 37.8 66.5 1 4.9 1.3 10.1 1 15.4-1.6 28.7-13.3 57.4-32.1 78.9-13.5 11.6-27.7 20.6-43.4 27.6-16.8 7.4-35.5 12.3-55.5 14.5h-0.2-0.3c-31.9-6-62.1-23.8-85-50-20.5-23.3-32.3-52.6-33.2-82.3-0.9-29.9 8.7-58.9 26.9-81.5l0.3-0.2c18.4-16 33.3-27.2 48.3-36.2l0.5-0.4 0.6 0.1c7.5 1.2 15.6 3 24.1 5 9.5 2.1 19.2 4.2 29.8 6 32.7 5.5 60.5 18.1 80.4 36.6zm34.6 67.1c-4.5-23.7-17.6-46.7-36.9-64.7-19.3-18-46.6-30.4-78.7-35.8-10.6-1.7-20.4-3.9-29.9-6-8.3-1.9-16.1-3.6-23.3-4.8-14.6 8.9-29.2 19.9-47.3 35.5-17.7 22-26.9 50.1-26.1 79.2 0.9 29 12.4 57.5 32.3 80.2 22.5 25.6 51.9 43 83 48.9 19.5-2.2 37.8-7 54.2-14.2 15.5-6.9 29.4-15.7 42.5-26.9 18.1-20.8 29.5-48.8 31.1-76.8 0.3-5 0-9.9-0.9-14.6z"></path>
            <path id="&lt;Compound Path&gt;" fill-rule="evenodd" class="s0" d="m944.4 197.6c24 24 37.8 55.2 38.9 87.7-0.4 34.3-14.4 68.2-38.2 92.8-13.1 11.8-27.7 21.2-43.6 28-16.3 6.9-33.9 11-52.4 12.2-2.8 0.2-5.6 0.1-8.3-0.2-33.6-4.4-64.6-20.9-88.1-46.7-23.3-25.4-36-58-36-91.8 0.1-33.9 12.7-65.9 35.6-90.2l0.1-0.1c15.1-13.6 31-24.6 47.1-32.7l0.5-0.2c18.1-2.2 38.8-0.8 54.7 0.8 35.2 3.4 67 17.8 89.7 40.4zm35.4 87.7c-1-31.5-14.5-61.8-37.8-85.2-22.2-22.1-53.3-36.1-87.6-39.4-15.7-1.6-36-3-53.7-0.9-15.7 7.9-31.1 18.7-45.9 32-22.2 23.7-34.5 54.9-34.6 87.8 0 32.9 12.4 64.7 35 89.5 23.9 26.2 55.8 42.5 89.8 46 19.3-0.8 37.9-4.9 55.1-12.2 15.5-6.6 29.8-15.8 42.5-27.3 23.2-23.9 36.8-56.9 37.2-90.3z"></path>
            <path id="&lt;Compound Path&gt;" fill-rule="evenodd" class="s0" d="m990.7 287.5c-1.1 37.8-16.8 73-44.3 99-26.5 25.1-60.9 38.8-97.3 38.8q-2 0-4-0.1c-37.9-1-73-16.8-99.1-44.3-26-27.5-39.7-63.4-38.7-101.3 1.1-37.8 16.8-73 44.3-99 27.5-26 63.4-39.8 101.3-38.7 37.9 1 73 16.7 99.1 44.2 26 27.5 39.7 63.5 38.7 101.4zm-41.4-98.8c-25.4-26.8-59.6-42.1-96.5-43.2q-1.9 0-3.9 0c-35.4 0-68.9 13.3-94.8 37.8-26.8 25.3-42.1 59.6-43.1 96.4-1 36.9 12.4 71.9 37.7 98.7 25.4 26.8 59.6 42.1 96.5 43.1 36.8 1 71.9-12.3 98.7-37.7 26.8-25.3 42.1-59.6 43.1-96.4 1-36.9-12.4-71.9-37.7-98.7z"></path>
          </g>
        </g>
      </g>
      <g id="&lt;Group&gt;">
        <g id="&lt;Group&gt;">
          <path id="&lt;Compound Path&gt;" class="s0" d="m165.8 328.4c-2.1-2.1-5.3-3.2-8.1-3.2-7.1 0-11.2 5.3-11.2 11.7 0 5.5 3.3 10.9 11.2 10.9 2.6 0 4.9-0.6 7.4-2.7v-6.1h-8.5v-4.3h13v12.4c-3.1 3.3-6.8 5.2-11.9 5.2-11.2 0-16-7.3-16-15.4 0-8.7 5.6-16.2 16-16.2 4 0 8 1.5 11.2 4.6z"></path>
          <path id="&lt;Compound Path&gt;" class="s0" d="m200.4 351.7h-22.3c0-10 0-20.2 0-30.2h22.2v4.7h-17.4v8.2h16.7v4.5h-16.7v8.1h17.5z"></path>
          <path id="&lt;Compound Path&gt;" class="s0" d="m229.9 343v-21.5h4.8v30.2h-3.7l-17.1-21.3v21.3h-4.9v-30.2h3.7z"></path>
          <path id="&lt;Compound Path&gt;" class="s0" d="m267 351.7h-22.3c0-10 0-20.2 0-30.2h22.2v4.7h-17.4v8.2h16.7v4.5h-16.7v8.1h17.5z"></path>
          <path id="&lt;Compound Path&gt;" fill-rule="evenodd" class="s0" d="m301.7 351.7h-5.7l-9.2-10.4h-6.4v10.4h-4.8v-30.3c4.7 0 9.4 0.1 14.1 0.1 7 0 10.6 4.8 10.6 9.9 0 4.3-2.2 8.5-8.2 9.4l9.1 10.1zm-21.3-25.9v11h9.2c4 0 5.8-2.6 5.8-5.4 0-2.7-1.8-5.6-5.8-5.6z"></path>
          <path id="&lt;Compound Path&gt;" fill-rule="evenodd" class="s0" d="m330.9 345.4h-16.4l-2.8 6.3h-5.2l13.6-30.2h5.3l13.6 30.2h-5.2zm-8.2-18.8l-6.4 14.4h12.8z"></path>
          <path id="&lt;Compound Path&gt;" class="s0" d="m350.3 321.5v25.7h16v4.5h-20.8v-30.2z"></path>
          <path id="&lt;Compound Path&gt;" fill-rule="evenodd" class="s0" d="m404.1 345.4h-16.4l-2.8 6.3h-5.2l13.6-30.2h5.3l13.6 30.2h-5.2zm-8.2-18.8l-6.4 14.4h12.8z"></path>
          <path id="&lt;Compound Path&gt;" class="s0" d="m442.8 321.5v17.7c0 8.9-5.9 13.4-13.2 13.1-6.8-0.2-12.5-4.5-12.5-13.1v-17.7h4.8v17.7c0 5.5 3.2 8.5 7.7 8.6 4.8 0.3 8.4-2.8 8.4-8.6v-17.7z"></path>
          <path id="&lt;Compound Path&gt;" class="s0" d="m459.2 325.8h-9.9v-4.3c8.6 0 16 0 24.7 0v4.3h-9.9v25.9h-4.9z"></path>
          <path id="&lt;Compound Path&gt;" class="s0" d="m501.7 351.7v-12.5h-16v12.5h-4.8v-30.2h4.8v13.2h16v-13.2h4.8v30.2z"></path>
          <path id="&lt;Compound Path&gt;" fill-rule="evenodd" class="s0" d="m545.6 336.7c0 8.2-5 15.7-15.5 15.7-10.5 0-15.5-7.7-15.5-15.6 0-9.2 6.4-15.9 15.6-15.9 10.3 0.1 15.4 7.7 15.4 15.8zm-15.5 11.2c7.5 0 10.7-5.3 10.7-11.1 0-5.6-3.2-11.4-10.6-11.5-7 0-10.8 4.9-10.8 11.5 0.1 5.4 3.2 11.1 10.7 11.1z"></path>
          <path id="&lt;Compound Path&gt;" fill-rule="evenodd" class="s0" d="m579.8 351.7h-5.7l-9.2-10.4h-6.4v10.4h-4.9v-30.3c4.7 0 9.4 0.1 14.1 0.1 7 0 10.7 4.8 10.7 9.9 0 4.3-2.2 8.5-8.2 9.4l9 10.1zm-21.2-25.9v11h9.2c4 0 5.8-2.6 5.8-5.4 0-2.7-1.8-5.6-5.8-5.6z"></path>
          <path id="&lt;Compound Path&gt;" class="s0" d="m587.1 351.7v-30.2h4.8v30.2z"></path>
          <path id="&lt;Compound Path&gt;" class="s0" d="m608.8 325.8h-10v-4.3c8.7 0 16.1 0 24.8 0v4.3h-10v25.9h-4.8z"></path>
          <path id="&lt;Compound Path&gt;" class="s0" d="m641.4 334.8l8.6-13.3h5.9v0.2l-12.1 17.6v12.4h-4.8v-12.4l-11.7-17.6v-0.2h5.8z"></path>
          <path id="&lt;Compound Path&gt;" fill-rule="evenodd" class="s0" d="m172.6 386.6c0 8.2-5 15.6-15.4 15.6-10.5 0-15.5-7.6-15.5-15.5 0-9.2 6.5-15.8 15.5-15.8 10.3 0 15.4 7.6 15.4 15.7zm-15.4 11.2c7.5 0 10.6-5.3 10.6-11.1 0-5.5-3.2-11.3-10.6-11.4-6.9 0-10.7 4.8-10.7 11.4 0.1 5.4 3.2 11.1 10.7 11.1z"></path>
          <path id="&lt;Compound Path&gt;" class="s0" d="m178.9 401.6v-30.1h21.3v4.7h-16.5v9.1h15.7v4.5h-15.7v11.8z"></path>
          <path id="&lt;Compound Path&gt;" class="s0" d="m240.8 378.5l-10.2 14.2h-1l-10.2-14.2v23.1h-4.8v-30.1c1.9 0 3.7 0 5.6 0l10 14.1 9.9-14.1h5.6v30.1h-4.9z"></path>
          <path id="&lt;Compound Path&gt;" class="s0" d="m276.1 401.6h-22.3c0-10.1 0-20.1 0-30.2h22.2v4.7h-17.3v8.2h16.6v4.4h-16.6v8.1h17.4z"></path>
          <path id="&lt;Compound Path&gt;" fill-rule="evenodd" class="s0" d="m294.3 371.4c10.3 0 15 7.4 15.1 14.8 0.2 7.7-4.5 15.4-15.1 15.4-3.6 0-7.8 0-11.4 0v-30.2zm-6.6 25.5h6.6c7.4 0 10.5-5.4 10.3-10.7-0.1-5.1-3.2-10.2-10.3-10.2h-6.6z"></path>
          <path id="&lt;Compound Path&gt;" class="s0" d="m315.8 401.6v-30.2h4.8v30.2z"></path>
          <path id="&lt;Compound Path&gt;" fill-rule="evenodd" class="s0" d="m349.7 395.2h-16.4l-2.8 6.4h-5.1l13.5-30.2h5.3l13.5 30.2h-5.1zm-8.2-18.8l-6.4 14.4h12.8z"></path>
          <path id="&lt;Compound Path&gt;" fill-rule="evenodd" class="s0" d="m397.9 401.6h-5.7l-9.2-10.4h-6.3v10.4h-4.9v-30.2c4.7 0 9.4 0 14.1 0 7 0 10.6 4.8 10.6 9.9 0 4.3-2.2 8.5-8.2 9.4l9 10zm-21.2-25.7v10.9h9.2c4 0 5.8-2.5 5.8-5.4 0-2.7-1.8-5.5-5.7-5.5z"></path>
          <path id="&lt;Compound Path&gt;" class="s0" d="m425.8 401.6h-22.3c0-10.1 0-20.1 0-30.2h22.1v4.7h-17.3v8.2h16.6v4.4h-16.6v8.1h17.5z"></path>
          <path id="&lt;Compound Path&gt;" class="s0" d="m454.9 378.4c-2.1-2.1-5.3-3.3-8.1-3.3-7.1 0-11.1 5.3-11.1 11.7 0 5.5 3.3 10.9 11.1 10.9 2.6 0 5-0.7 7.4-2.7v-6.1h-8.4v-4.3h12.9v12.3c-3.1 3.3-6.8 5.3-11.9 5.3-11.1 0-15.8-7.4-15.8-15.4 0-8.7 5.5-16.1 15.8-16.1 4 0 8.1 1.5 11.2 4.6z"></path>
          <path id="&lt;Compound Path&gt;" class="s0" d="m490.6 371.5v17.6c0 8.9-5.9 13.3-13.1 13-6.8-0.1-12.5-4.4-12.5-13v-17.6h4.8v17.6c0 5.5 3.2 8.4 7.7 8.6 4.8 0.3 8.3-2.9 8.3-8.6v-17.6z"></path>
          <path id="&lt;Compound Path&gt;" class="s0" d="m503.2 371.4v25.7h15.4v4.5h-20.2v-30.2z"></path>
          <path id="&lt;Compound Path&gt;" fill-rule="evenodd" class="s0" d="m545.5 395.2h-16.3l-2.8 6.4h-5.1l13.5-30.2h5.2l13.6 30.2h-5.2zm-8.1-18.8l-6.4 14.4h12.8z"></path>
          <path id="&lt;Compound Path&gt;" class="s0" d="m562.1 375.8h-9.9v-4.4c8.6 0 16 0 24.6 0v4.4h-9.8v25.8h-4.9z"></path>
          <path id="&lt;Compound Path&gt;" class="s0" d="m581.9 401.6v-30.2h4.8v30.2z"></path>
          <path id="&lt;Compound Path&gt;" fill-rule="evenodd" class="s0" d="m623.9 386.6c0 8.2-5 15.6-15.4 15.6-10.5 0-15.4-7.6-15.4-15.5 0-9.2 6.4-15.8 15.5-15.8 10.3 0 15.3 7.6 15.3 15.7zm-15.4 11.2c7.5 0 10.6-5.3 10.6-11.1 0-5.5-3.2-11.3-10.5-11.4-7 0-10.8 4.8-10.8 11.4 0.1 5.4 3.2 11.1 10.7 11.1z"></path>
          <path id="&lt;Compound Path&gt;" class="s0" d="m651 392.9v-21.5h4.9v30.2h-3.7l-17.1-21.3v21.3h-4.9v-30.2h3.7z"></path>
        </g>
        <g id="&lt;Group&gt;">
          <g id="&lt;Group&gt;">
            <g id="&lt;Group&gt;">
              <path id="&lt;Compound Path&gt;" fill-rule="evenodd" class="s0" d="m637.7 164.9v48.7h-101.2c-6.6 0-9.5-2.6-10.6-4.2 0-0.1-0.5-1-0.6-1.1-1.7 3.5-5.2 5.3-9.9 5.3h-15.7c-6.6 0-9.4-2.6-10.5-4.2-0.1-0.1-0.5-0.7-0.7-0.9-1.8 3.3-5.2 5.1-9.9 5.1h-10.1c-6.6 0-9.4-2.6-10.5-4.2 0-0.1-0.2-0.4-0.4-0.6-2.8 3.8-7.1 6.2-12 6.2-10.8 0-16.3-7.7-16.3-17.8 0-9.7 7-16.1 16.3-16.1h15.8v19.4c0 5.1 2.3 7.5 7.3 7.5h9.9q3.7 0 5.5-1.8 1.7-1.8 1.7-5.7v-13.6h6.8v13.6c0 4.9 2.3 7.5 7.2 7.5h15.6q3.7 0 5.4-1.8 1.8-1.8 1.8-5.7v-13.6h6.7v13.5c0 5.2 2.6 7.6 7.4 7.6h31.8c-1.7-2-2.7-4.5-2.7-7.3 0-7.5 5.5-12.6 13.5-12.6 7.1 0 12.3 5.6 12.3 13.1v6.8h7.6v-8c0-17.6-15.7-21.6-30-15.6l-2.5-6c17.6-7.6 39.3-2.7 39.3 21.6v8h25v-43.1zm-183.4 22h-7.3c-3.8 0-10.3 1.8-10.3 10.5 0 8.7 5.2 11.6 8.8 11.6 3.6 0 8.8-1.8 8.8-11.6zm130.6 13.9c0-6.4-4-7.3-6.3-7.3-2.2 0-6.1 1.7-6.1 7.3 0 5.1 3.2 7.2 7 7.2h5.4z"></path>
            </g>
            <g id="&lt;Group&gt;">
              <path id="&lt;Path&gt;" class="s0" d="m655.9 164.9v48.7h-6.8v-48.7z"></path>
            </g>
            <path id="&lt;Path&gt;" class="s0" d="m495.2 176.2v3.2h-13.1v-3.2q2 0 3.9 0c-1-0.7-1.7-1.9-1.8-3.1-0.2-1.2 0-2.4 0.6-3.5 0.6-1 1.5-1.8 2.6-2.3 1.1-0.5 2.3-0.6 3.5-0.5 1 0.1 2.3 0.6 3.4 1.3l-1.5 2.7c-1.2-0.6-2.7-0.8-3.7-0.3-0.7 0.3-1.2 0.9-1.4 1.6-0.3 0.7-0.2 1.5 0.1 2.1 0.6 1.2 2 1.8 3.3 2 1.4 0.1 2.7 0 4.1 0z"></path>
            <g id="&lt;Group&gt;">
              <g id="&lt;Group&gt;">
                <path id="&lt;Path&gt;" class="s0" d="m392.4 237.5v48.8h-6.7v-48.8z"></path>
              </g>
              <g id="&lt;Group&gt;">
                <path id="&lt;Path&gt;" class="s0" d="m366.7 237.5v43.2h-13.7v-33.5h-6.8v33.5h-12.3v5.6h9.7 6.8 23v-48.8z"></path>
                <path id="&lt;Compound Path&gt;" fill-rule="evenodd" class="s0" d="m187.2 270.3c0 9.7-7.1 16-16.3 16h-10.8-2.5c-3.4 0-9.1 1.8-9.1 11.7v5h-6.8v-6c0-8.8 5.5-15 13.3-16.1v-10.6c0-9.7 6.7-16.5 15.9-16.5 9.5 0 16.3 6.8 16.3 16.5zm-7.2 0c0-9-5.8-11-9.1-11-3.3 0-9.2 1.1-9.2 11v10.4h7.5c3.9 0 10.8-0.6 10.8-10.4z"></path>
                <path id="&lt;Path&gt;" class="s0" d="m312.3 279.2c-2.4-1-4.3-2.4-5.6-4.2q-2-2.8-2-6.2 0-2.8 1.2-4.9 1.3-2.2 3.7-3.4 2.4-1.2 5.7-1.2 2.1 0 5.7 0.6v-5.3q-3.7-0.9-6.9-0.9c-3.2 0-6.2 0.7-8.7 1.9-2.5 1.3-4.5 3.1-5.9 5.3-1.4 2.2-2.1 4.8-2.1 7.7q0 3.6 1.5 6.5 1.6 2.9 4.5 4.9l1 0.7h-0.9-2.3-4.2-55.5q-3.8 0-5.6-1.8-1.8-1.8-1.8-5.8v-35.6h-6.7v35.6c0 5.2-2.4 7.6-7.4 7.6h-5.7v-33.5h-6.7v33.5h-13.6v5.6h26.3c6.6 0 9.4-2.7 10.5-4.3 0.1-0.1 0.5-0.7 0.5-0.8 1.9 3.3 5.4 5.1 10.2 5.1h55.5 4.2 23v-5.6h-3.8c-3.1 0-5.8-0.5-8.1-1.5z"></path>
                <path id="&lt;Path&gt;" class="s0" d="m349.3 299.9c-1.2-0.1-2.5-0.7-3.1-1.8-0.3-0.6-0.4-1.3-0.1-2 0.2-0.6 0.7-1.2 1.3-1.5 0.9-0.4 2.3-0.2 3.4 0.3l1.4-2.5c-1-0.6-2.2-1.1-3.1-1.2-1.1-0.1-2.3 0-3.3 0.4-1 0.5-1.8 1.3-2.4 2.2-0.5 1-0.8 2.2-0.6 3.3 0.2 1.1 0.8 2.2 1.7 2.9q-1.8 0-3.6 0v3h12.2v-3c-1.3 0-2.5 0.1-3.8-0.1z"></path>
              </g>
            </g>
            <g id="&lt;Group&gt;">
              <path id="&lt;Path&gt;" class="s0" d="m524.8 223.1c0 2.3-1.8 4.1-4.1 4.1-2.2 0-4-1.8-4-4.1 0-2.2 1.8-4 4-4 2.3 0 4.1 1.8 4.1 4z"></path>
              <path id="&lt;Path&gt;" class="s0" d="m535 223.1c0 2.3-1.8 4.1-4 4.1-2.3 0-4.1-1.8-4.1-4.1 0-2.2 1.8-4 4.1-4 2.2 0 4 1.8 4 4z"></path>
            </g>
            <g id="&lt;Group&gt;">
              <path id="&lt;Path&gt;" class="s0" d="m448.8 173.1c0 2.2-1.8 4-4 4-2.3 0-4.1-1.8-4.1-4 0-2.3 1.8-4.1 4.1-4.1 2.2 0 4 1.8 4 4.1z"></path>
              <path id="&lt;Path&gt;" class="s0" d="m459.3 173.1c0 2.2-1.8 4-4.1 4-2.2 0-4-1.8-4-4 0-2.3 1.8-4.1 4-4.1 2.3 0 4.1 1.8 4.1 4.1z"></path>
            </g>
            <g id="&lt;Group&gt;">
              <g id="&lt;Group&gt;">
                <path id="&lt;Compound Path&gt;" fill-rule="evenodd" class="s0" d="m391.1 164.9v48.7h-39c-3.5 0-6-1.3-7.8-3.3-1.3 1.3-4.2 3.3-9.6 3.3h-61.1v-48.8h6.7v43.2h53.5c4.1 0 5.6-1 6.5-1.9-4.1-6.4-9.6-15.2-12.4-15.9v-5.7c5.4-2.2 11.3-3.3 16.5-3.4 13.9-0.3 19.9 7.9 10.7 19-1.3 1.6-3.6 4.1-5.9 6.3 1.2 1.9 4.7 1.6 6.9 1.6h28.3v-43.1zm-42.4 33.2c2-2.7 5-7.9 1.1-10.1-3.9-2-10.4-1.1-14.7 0.7 2 1.2 6.2 8.6 9.7 13.9 1.8-1.8 3-3.2 3.9-4.5z"></path>
              </g>
              <g id="&lt;Group&gt;">
                <path id="&lt;Path&gt;" class="s0" d="m409.2 164.9v48.7h-6.7v-48.7z"></path>
              </g>
              <g id="&lt;Group&gt;">
                <path id="&lt;Compound Path&gt;" fill-rule="evenodd" class="s0" d="m261 197.6c0 9.7-7 16-16.3 16h-63.7c-6.6 0-9.4-2.6-10.5-4.2-0.1-0.1-0.3-0.3-0.4-0.5-2.7 3.7-6.9 6.1-11.8 6.1-10.8 0-16.3-7.7-16.3-17.8 0-9.7 7.1-16.1 16.3-16.1h15.6v19.4c0 5.1 2.2 7.5 7.2 7.5h47.7v-10.4c0-9.6 6.8-16.5 15.9-16.5 9.5 0 16.3 6.9 16.3 16.5zm-93.9-10.7h-7.3c-3.9 0-10.4 1.8-10.4 10.5 0 8.7 5.3 11.6 8.9 11.6 3.5 0 8.7-1.7 8.8-11.2v-2.2zm86.7 10.7c0-9-5.8-10.9-9.1-10.9-3.2 0-9.1 1-9.1 10.9v10.4h7.4c4.1 0 10.8-0.6 10.8-10.4z"></path>
                <path id="&lt;Path&gt;" class="s0" d="m157.1 177.1c2.2 0 4-1.8 4-4 0-2.3-1.8-4.1-4-4.1-2.3 0-4.1 1.8-4.1 4.1 0 2.2 1.8 4 4.1 4z"></path>
                <path id="&lt;Path&gt;" class="s0" d="m167.3 177.1c2.2 0 4.1-1.8 4.1-4 0-2.3-1.9-4.1-4.1-4.1-2.2 0-4 1.8-4 4.1 0 2.2 1.8 4 4 4z"></path>
              </g>
            </g>
            <g id="&lt;Group&gt;">
              <path id="&lt;Compound Path&gt;" fill-rule="evenodd" class="s0" d="m655.9 237.5v48.8h-6.8-20.6c-6.6 0-9.4-2.7-10.5-4.3-0.1-0.1-0.6-0.9-0.6-1-1.8 3.4-5.3 5.3-10 5.3h-7.2c-6.6 0-9.4-2.7-10.5-4.3-0.1-0.1-0.5-0.6-0.5-0.7-1.9 3.3-5.4 5-10.2 5h-12c-6.6 0-9.5-2.7-10.6-4.3 0-0.1-0.4-0.6-0.5-0.7v-0.2q-1.6 1.9-3.8 3.2-3.5 2-7.6 2h-54.7c-4.7 0-8.2-1.8-10.1-5.1-0.1 0.1-0.5 0.7-0.5 0.8-1.1 1.6-4 4.3-10.6 4.3h-10.4c-6.7 0-9.5-2.7-10.6-4.3-0.1-0.1-0.4-0.6-0.5-0.7v-0.1c-3 3.2-7.3 5.1-12.3 5.1h-13c-3.4 0-9.2 1.8-9.2 11.7v5h-6.7v-6c0-8.7 5.3-14.8 13-16.1v-10.6c0-9.7 6.7-16.5 15.9-16.5 9.4 0 16.2 6.8 16.2 16.5q0 0.3 0 0.5v2.3c0 5.1 2.3 7.5 7.3 7.6h10c5.1 0 7.5-2.4 7.5-7.6v-13.3h6.7v13.3q0 4 1.8 5.8 1.7 1.8 5.5 1.8h27.3v-38.6h6.8v22.6c6.6-7.2 13.7-10.8 19.6-10.8q8 0 12 4.4c2.9 3.2 4.4 7.6 4.3 12v2.8c0 5.1 2.3 7.5 7.3 7.6h11.9c2.5 0 4.4-0.6 5.5-1.8 1.2-1.2 1.8-3.1 1.8-5.8v-13.5h6.8v13.5c0 5.1 2.3 7.5 7.2 7.6h7.1q3.7 0 5.5-1.8 1.8-1.9 1.8-5.8v-13.5h6.7v13.5c0 5.2 2.4 7.6 7.4 7.6h20.3v-43.2zm-211.9 32.8c0-9-5.8-11-9.2-11-3.2 0-9.1 1.1-9.1 11v10.4h7.4c4 0 10.9-0.6 10.9-10.4zm108.9 0.4q0-5.3-2.8-7.9-2.8-2.7-7.7-2.7c-5.9 0-12.3 4.6-18.5 11.9v8.7h19.8c5.7 0 9.2-5.2 9.2-10z"></path>
              <g id="&lt;Group&gt;">
                <path id="&lt;Path&gt;" class="s0" d="m476.6 295.8c0 2.2-1.9 4-4.1 4-2.2 0-4-1.8-4-4 0-2.3 1.8-4.1 4-4.1 2.2 0 4.1 1.8 4.1 4.1z"></path>
                <path id="&lt;Path&gt;" class="s0" d="m487 295.8c0 2.2-1.8 4-4 4-2.3 0-4.1-1.8-4.1-4 0-2.3 1.8-4.1 4.1-4.1 2.2 0 4 1.8 4 4.1z"></path>
              </g>
              <g id="&lt;Group&gt;">
                <path id="&lt;Path&gt;" class="s0" d="m615.9 249.6c0 2.2-1.8 4.1-4 4.1-2.2 0-4.1-1.9-4.1-4.1 0-2.2 1.9-4 4.1-4 2.2 0 4 1.8 4 4z"></path>
                <path id="&lt;Path&gt;" class="s0" d="m626.4 249.6c0 2.2-1.8 4.1-4.1 4.1-2.2 0-4-1.9-4-4.1 0-2.2 1.8-4 4-4 2.3 0 4.1 1.8 4.1 4z"></path>
              </g>
              <g id="&lt;Group&gt;">
                <path id="&lt;Path&gt;" class="s0" d="m592.5 249.6c0 2.2-1.8 4.1-4.1 4.1-2.2 0-4-1.9-4-4.1 0-2.2 1.8-4 4-4 2.3 0 4.1 1.8 4.1 4z"></path>
              </g>
              <g id="&lt;Group&gt;">
                <path id="&lt;Path&gt;" class="s0" d="m545 246.1c0 2.2-1.8 4-4 4-2.3 0-4.1-1.8-4.1-4 0-2.3 1.8-4.1 4.1-4.1 2.2 0 4 1.8 4 4.1z"></path>
              </g>
            </g>
          </g>
        </g>
      </g>
    </g>
  </g>
</svg>
